<svg xmlns="http://www.w3.org/2000/svg" width="200" height="200" viewBox="0 0 17 16">
  <defs>
    <!-- Gradient من الأزرق للـ Purple -->
    <linearGradient id="grad1" x1="0%" y1="0%" x2="100%" y2="0%">
      <stop offset="0%" stop-color="#3b82f6" /> <!-- from-blue-500 -->
      <stop offset="100%" stop-color="#7c3aed" /> <!-- to-purple-600 -->
    </linearGradient>
  </defs>

  <!-- الشكل الرئيسي -->
  <path
    fill="url(#grad1)"
    fill-rule="evenodd"
    d="M11.74 11.993a.714.714 0 0 0 .493-.195l3.479-3.316a.644.644 0 0 0 0-.939l-3.479-3.318a.72.72 0 0 0-.984 0a.643.643 0 0 0 0 .938l2.987 2.85l-2.987 2.848a.643.643 0 0 0 0 .938a.713.713 0 0 0 .491.194zm-7.439-.11a.727.727 0 0 1-.497-.19L.287 8.425a.62.62 0 0 1 0-.923l3.517-3.268a.74.74 0 0 1 .995 0a.624.624 0 0 1 0 .924l-3.02 2.805l3.02 2.804a.626.626 0 0 1 0 .926a.736.736 0 0 1-.498.19zm2.384 3.006a.672.672 0 0 0 .503-.51L9.934 1.885a.636.636 0 0 0-.488-.768a.661.661 0 0 0-.77.514L5.93 14.125a.636.636 0 0 0 .755.764z"
  />
</svg>
